<?xml version="1.0" encoding="utf-8"?>
<!-- Generator: Adobe Illustrator 24.3.0, SVG Export Plug-In . SVG Version: 6.00 Build 0)  -->
<svg version="1.1" id="Layer_1" xmlns="http://www.w3.org/2000/svg" xmlns:xlink="http://www.w3.org/1999/xlink" x="0px" y="0px"
	 viewBox="0 0 100 100" style="enable-background:new 0 0 100 100;" xml:space="preserve">
<style type="text/css">
	.st0{fill:#FFE75A;}
	.st1{fill:none;}
	.st2{font-family:'MyriadPro-Regular';}
	.st3{font-size:6px;}
</style>
<g>
	<path class="st0" d="M50,28.7c-9.3,0-16.8,7.5-16.8,16.8c0,3.1,0.9,5.9,2.2,8.4c4.1,7.4,5.2,11.6,5.9,15.7c0.6,3.4,1.3,4.2,3.9,4.2
		c1.1,0,2.9,0,4.8,0c1.9,0,3.7,0,4.8,0c2.6,0,3.3-0.8,3.9-4.2c0.7-4,1.8-8.2,5.9-15.7c1.4-2.5,2.2-5.3,2.2-8.4
		C66.8,36.2,59.2,28.7,50,28.7z"/>
	<path class="st0" d="M56,74.9H44c-0.5,0-0.9,0.4-0.9,0.9v0.6c0,0.5,0.4,0.9,0.9,0.9h12c0.5,0,0.9-0.4,0.9-0.9v-0.6
		C56.9,75.3,56.5,74.9,56,74.9z"/>
	<path class="st0" d="M56,78.5H44c-0.5,0-0.9,0.4-0.9,0.9V80c0,0.5,0.4,0.9,0.9,0.9h12c0.5,0,0.9-0.4,0.9-0.9v-0.6
		C56.9,78.9,56.5,78.5,56,78.5z"/>
	<path class="st0" d="M56,82.1H44c-0.5,0-0.9,0.4-0.9,0.9v0.6c0,0.5,0.4,0.9,0.9,0.9h12c0.5,0,0.9-0.4,0.9-0.9V83
		C56.9,82.5,56.5,82.1,56,82.1z"/>
	<path class="st0" d="M45.5,85.7h9c0,1.8-2.4,3-4.5,3C47.9,88.7,45.5,87.5,45.5,85.7z"/>
	<path class="st0" d="M69.3,16.9c1.5-2.7-2.6-5.1-4.2-2.4C64.3,15.8,58.5,26,58.5,26l4.2,2.4C62.6,28.4,67.8,19.4,69.3,16.9
		C69.3,16.9,69.3,16.9,69.3,16.9L69.3,16.9L69.3,16.9z"/>
	<path class="st0" d="M78.6,26.2L78.6,26.2L78.6,26.2C78.6,26.3,78.6,26.3,78.6,26.2c-2.1,1.2-11.2,6.5-11.2,6.5l2.4,4.2
		c0,0,9.1-5.2,11.2-6.5C83.7,28.9,81.3,24.7,78.6,26.2z"/>
	<path class="st0" d="M52.5,11.1c0,0.7,0,12.8,0,12.8h-4.8c0,0,0-12.1,0-12.8C47.6,8,52.5,8,52.5,11.1z"/>
	<path class="st0" d="M30.7,16.9c-1.5-2.7,2.6-5.1,4.2-2.4c0.8,1.4,6.7,11.5,6.7,11.5l-4.2,2.4C37.4,28.4,32.2,19.4,30.7,16.9
		C30.7,16.9,30.7,16.9,30.7,16.9L30.7,16.9L30.7,16.9z"/>
	<path class="st0" d="M21.4,26.2L21.4,26.2L21.4,26.2C21.4,26.3,21.4,26.3,21.4,26.2c2.1,1.2,11.2,6.5,11.2,6.5l-2.4,4.2
		c0,0-9.1-5.2-11.2-6.5C16.3,28.9,18.7,24.7,21.4,26.2z"/>
</g>
<rect x="37" y="45.4" class="st1" width="26.3" height="5.1"/>
<g>
	<text transform="matrix(1 0 0 1 39.9508 49.2548)" class="st2 st3">Click Me</text>
</g>
<rect x="78.3" y="42.9" class="st1" width="8.4" height="0.2"/>
</svg>
